<svg xmlns="http://www.w3.org/2000/svg" viewBox="0 0 3941.09 1019"><defs><style>.cls-1{fill:#0a105e;}.cls-2{fill:#f2f2f2;}.cls-3{fill:#fff;}</style></defs><title>LATT - Color_Light (Horizontal)_1</title><g id="Layer_2" data-name="Layer 2"><g id="EditableText"><rect class="cls-1" x="1277.12" y="845.06" width="16.17" height="162.23"/><polygon class="cls-1" points="1615.36 845.06 1615.36 1007.28 1599.66 1007.28 1507.55 872.41 1507.55 1007.28 1491.36 1007.28 1491.36 845.06 1507.07 845.06 1507.37 845.49 1599.18 979.28 1599.18 845.06 1615.36 845.06"/><path class="cls-1" d="M1967.18,926.63c0,48.46-33.62,83.64-80,83.64-47.41,0-81.82-35.38-81.82-84.1s34.41-84.08,81.82-84.08c36.83,0,66.59,21.57,75.81,55l.34,1.25h-16.22l-.22-.68c-8.46-25.37-30.79-40.51-59.71-40.51-38.65,0-65.62,28.38-65.62,69s27,69.06,65.62,69.06c35.25,0,60-23.34,63.46-59.6h-64.46V921.51h80.58l.13.84A25.91,25.91,0,0,1,1967.18,926.63Z"/><polygon class="cls-1" points="2173.43 860.34 2173.43 916.25 2254.23 916.25 2254.23 931.53 2173.43 931.53 2173.43 992.02 2263.85 992.02 2263.85 1007.28 2157.24 1007.28 2157.24 845.06 2263.85 845.06 2263.85 860.34 2173.43 860.34"/><polygon class="cls-1" points="2577.91 845.06 2577.91 1007.28 2562.19 1007.28 2470.1 872.41 2470.1 1007.28 2453.91 1007.28 2453.91 845.06 2469.62 845.06 2469.92 845.49 2561.73 979.28 2561.73 845.06 2577.91 845.06"/><rect class="cls-1" x="2775.97" y="845.06" width="16.19" height="162.23"/><polygon class="cls-1" points="3006.43 860.34 3006.43 916.25 3087.22 916.25 3087.22 931.53 3006.43 931.53 3006.43 992.02 3096.84 992.02 3096.84 1007.28 2990.23 1007.28 2990.23 845.06 3096.84 845.06 3096.84 860.34 3006.43 860.34"/><path class="cls-1" d="M3361.4,941.11c22.83-4.18,38-23.07,38-47.45,0-27.71-21.3-48.6-49.53-48.6h-63v162.22h16.17V942.5h41.71l40.06,64.78H3403Zm-58.33-81h46.4c19.72,0,34,14.12,34,33.56,0,19.72-14,34-33.35,34h-47.07Z"/><rect class="cls-1" x="3589.74" y="845.06" width="16.17" height="162.23"/><path class="cls-1" d="M3872.72,845.06h-16l-68.15,162.22h17.51l16-38.44h85.19l16,38.44h17.73ZM3828,954l36.73-88.43L3901.25,954Z"/><polygon class="cls-1" points="1651.77 573.65 1651.77 635 1276.47 635 1276.47 4 1341.49 4 1341.49 573.65 1651.77 573.65"/><path class="cls-1" d="M2272.44,4H2209L1943.42,635h70.32L2076,485.94h329.48L2467.68,635h71.21ZM2099.65,426.35l141-338.82,140.19,338.82Z"/><polygon class="cls-1" points="3193.4 4 3193.4 65.37 2993.35 65.37 2993.35 635 2928.33 635 2928.33 65.37 2728.3 65.37 2728.3 4 3193.4 4"/><polygon class="cls-1" points="3941.09 4 3941.09 65.37 3741.03 65.37 3741.03 635 3676.02 635 3676.02 65.37 3475.98 65.37 3475.98 4 3941.09 4"/><polygon class="cls-2" points="1011.63 7.37 1011.63 1011.34 7.66 1011.34 1011.63 7.37"/><polygon class="cls-3" points="1011.63 7.37 7.66 1011.34 7.66 7.37 1011.63 7.37"/><polygon class="cls-1" points="1011.63 687.02 1011.63 700.95 318.05 700.95 318.05 7.37 331.98 7.37 331.98 687.02 1011.63 687.02"/><polygon class="cls-1" points="1011.63 473.51 1011.63 487.45 531.55 487.45 531.55 7.37 545.49 7.37 545.49 473.51 1011.63 473.51"/><polygon class="cls-1" points="1011.63 321.72 1011.63 335.65 683.35 335.65 683.35 7.37 697.28 7.37 697.28 321.72 1011.63 321.72"/><polygon class="cls-1" points="1011.63 208.97 1011.63 222.91 796.08 222.92 796.09 7.37 810.03 7.37 810.01 208.99 1011.63 208.97"/><polygon class="cls-1" points="1011.63 121.1 1011.63 135.03 883.97 135.03 883.97 7.37 897.9 7.37 897.9 121.1 1011.63 121.1"/><polygon class="cls-1" points="1011.63 51.2 1011.63 65.13 953.87 65.13 953.87 7.37 967.8 7.37 967.8 51.2 1011.63 51.2"/><path class="cls-1" d="M1019,1019H0V0H1019ZM14.74,1004.26h989.52V14.74H14.74Z"/></g></g></svg>