<svg xmlns="http://www.w3.org/2000/svg" viewBox="0 0 1362.61 1362.61"><defs><style>.cls-1{fill:#0a105e;}.cls-2{fill:#16237f;}.cls-3{fill:#fff;}</style></defs><title>LATT - Color_Dark (Isotype)</title><g id="Layer_2" data-name="Layer 2"><g id="EditableText"><polygon class="cls-1" points="1362.61 0 1362.61 1362.61 0 1362.61 1362.61 0"/><polygon class="cls-2" points="1362.61 0 0 1362.61 0 0 1362.61 0"/><polygon class="cls-3" points="1362.61 922.43 1362.61 941.34 421.27 941.34 421.27 0 440.18 0 440.18 922.43 1362.61 922.43"/><polygon class="cls-3" points="1362.61 632.66 1362.61 651.57 711.04 651.57 711.04 0 729.95 0 729.95 632.66 1362.61 632.66"/><polygon class="cls-3" points="1362.61 426.64 1362.61 445.55 917.05 445.55 917.05 0 935.96 0 935.96 426.64 1362.61 426.64"/><polygon class="cls-3" points="1362.61 273.62 1362.61 292.53 1070.06 292.55 1070.08 0 1088.98 0 1088.97 273.64 1362.61 273.62"/><polygon class="cls-3" points="1362.61 154.35 1362.61 173.26 1189.34 173.26 1189.34 0 1208.25 0 1208.25 154.35 1362.61 154.35"/><polygon class="cls-3" points="1362.61 59.49 1362.61 78.39 1284.21 78.39 1284.21 0 1303.12 0 1303.12 59.49 1362.61 59.49"/></g></g></svg>