<svg xmlns="http://www.w3.org/2000/svg" viewBox="0 0 3936.69 1006.61"><defs><style>.cls-1{fill:#0a105e;}.cls-2{fill:#16237f;}.cls-3{fill:#fff;}.cls-4{fill:#1a1a1a;}</style></defs><title>LATT - Color_Dark (Horizontal)</title><g id="Layer_2" data-name="Layer 2"><g id="EditableText"><polygon class="cls-1" points="1006.61 0 1006.61 1006.61 0 1006.61 1006.61 0"/><polygon class="cls-2" points="1006.61 0 0 1006.61 0 0 1006.61 0"/><polygon class="cls-3" points="1006.61 681.43 1006.61 695.4 311.21 695.4 311.21 0 325.18 0 325.18 681.43 1006.61 681.43"/><polygon class="cls-3" points="1006.61 467.37 1006.61 481.34 525.27 481.34 525.27 0 539.24 0 539.24 467.37 1006.61 467.37"/><polygon class="cls-3" points="1006.61 315.18 1006.61 329.15 677.46 329.15 677.46 0 691.43 0 691.43 315.18 1006.61 315.18"/><polygon class="cls-3" points="1006.61 202.13 1006.61 216.1 790.49 216.12 790.5 0 804.47 0 804.46 202.15 1006.61 202.13"/><polygon class="cls-3" points="1006.61 114.03 1006.61 128 878.61 128 878.61 0 892.58 0 892.58 114.03 1006.61 114.03"/><polygon class="cls-3" points="1006.61 43.94 1006.61 57.91 948.69 57.91 948.69 0 962.66 0 962.66 43.94 1006.61 43.94"/><rect class="cls-4" x="1272.72" y="841.06" width="16.17" height="162.23"/><polygon class="cls-4" points="1610.96 841.06 1610.96 1003.28 1595.27 1003.28 1503.16 868.41 1503.16 1003.28 1486.96 1003.28 1486.96 841.06 1502.68 841.06 1502.98 841.49 1594.79 975.28 1594.79 841.06 1610.96 841.06"/><path class="cls-4" d="M1962.79,922.63c0,48.46-33.63,83.64-80,83.64-47.41,0-81.81-35.38-81.81-84.1s34.4-84.08,81.81-84.08c36.83,0,66.59,21.57,75.82,55l.33,1.25h-16.21l-.22-.68c-8.47-25.37-30.8-40.51-59.72-40.51-38.64,0-65.62,28.38-65.62,69s27,69.06,65.62,69.06c35.26,0,60.06-23.34,63.47-59.6h-64.47V917.51h80.58l.14.84A25.91,25.91,0,0,1,1962.79,922.63Z"/><polygon class="cls-4" points="2169.04 856.34 2169.04 912.25 2249.84 912.25 2249.84 927.53 2169.04 927.53 2169.04 988.02 2259.46 988.02 2259.46 1003.28 2152.84 1003.28 2152.84 841.06 2259.46 841.06 2259.46 856.34 2169.04 856.34"/><polygon class="cls-4" points="2573.51 841.06 2573.51 1003.28 2557.8 1003.28 2465.71 868.41 2465.71 1003.28 2449.51 1003.28 2449.51 841.06 2465.23 841.06 2465.53 841.49 2557.34 975.28 2557.34 841.06 2573.51 841.06"/><rect class="cls-4" x="2771.58" y="841.06" width="16.19" height="162.23"/><polygon class="cls-4" points="3002.03 856.34 3002.03 912.25 3082.83 912.25 3082.83 927.53 3002.03 927.53 3002.03 988.02 3092.45 988.02 3092.45 1003.28 2985.84 1003.28 2985.84 841.06 3092.45 841.06 3092.45 856.34 3002.03 856.34"/><path class="cls-4" d="M3357,937.11c22.83-4.18,38.05-23.07,38.05-47.45,0-27.71-21.29-48.6-49.52-48.6h-63v162.22h16.18V938.5h41.71l40.06,64.78h18.17Zm-58.32-81h46.39c19.72,0,34,14.12,34,33.56,0,19.72-14,34-33.34,34h-47.07Z"/><rect class="cls-4" x="3585.35" y="841.06" width="16.17" height="162.23"/><path class="cls-4" d="M3868.33,841.06h-16l-68.14,162.22h17.51l16-38.44h85.2l16,38.44h17.73Zm-44.72,109,36.73-88.43L3896.85,950Z"/><polygon class="cls-4" points="1647.38 569.65 1647.38 631 1272.08 631 1272.08 0 1337.09 0 1337.09 569.65 1647.38 569.65"/><path class="cls-4" d="M2268,0h-63.47L1939,631h70.33l62.22-149.06H2401L2463.28,631h71.22ZM2095.25,422.35,2236.3,83.53l140.19,338.82Z"/><polygon class="cls-4" points="3189.01 0 3189.01 61.37 2988.95 61.37 2988.95 631 2923.94 631 2923.94 61.37 2723.9 61.37 2723.9 0 3189.01 0"/><polygon class="cls-4" points="3936.69 0 3936.69 61.37 3736.64 61.37 3736.64 631 3671.62 631 3671.62 61.37 3471.59 61.37 3471.59 0 3936.69 0"/></g></g></svg>